<?xml version="1.0" encoding="UTF-8"?>
<svg id="_图层_1" data-name="图层 1" xmlns="http://www.w3.org/2000/svg" viewBox="0 0 240 240">
  <defs>
    <style>
      .cls-1 {
        fill: #242424;
      }
    </style>
  </defs>
  <g>
    <path class="cls-1" d="M166.6,96.66l19-23.37c-6.99-8.22-15.61-15.07-25.41-20.03-3.37-.73-6.48-2.09-9.19-3.96-6.04-2.17-12.43-3.67-19.1-4.38-1.21-.13-2.42-.23-3.62-.3l-7.81,8.83c22.48,4.99,39.9,21.92,46.15,43.21Z"/>
    <path class="cls-1" d="M77.17,124.61l-21.62,24.63-7.9,8.99-25.89,29.49c22.4,13.57,43.34,11.12,56.31,7.12,8.35-2.58,13.4-5.8,13.4-5.8l10.48-12.89,36.58-44.99-61.37-6.55Z"/>
  </g>
  <path class="cls-1" d="M191.29,34.84l-.58-.06c-3.3,12.06-14.94,20.3-27.78,18.93-.93-.1-1.84-.25-2.74-.44-3.37-.73-6.48-2.09-9.19-3.96-5.95-4.09-10.04-10.57-11.03-17.91l-11.69,13.22-7.81,8.83-3.47,3.93,11.33,8.97-36.72,41.83,60.4,6.45,14.61-17.97,19-23.37,21.1-25.95-15.41-12.51Z"/>
  <path class="cls-1" d="M194.35,85.74c-2.53-4.42-5.46-8.59-8.74-12.45l-19,23.37c2.23,7.59,3.04,15.74,2.15,24.1-3.59,33.6-33.3,58.08-66.78,55.39-.55-.04-1.11-.1-1.67-.15-18.85-2.01-34.82-12.25-44.75-26.76-8.06-11.78-12.13-26.38-10.49-41.69.58-5.39,1.83-10.55,3.65-15.39-3.62,7.87-6.04,16.46-7.02,25.55-1.53,14.31.73,28.15,5.96,40.53,6.3,14.9,16.9,27.68,30.43,36.61,10.58,6.98,22.93,11.61,36.4,13.05,44.85,4.79,85.1-27.56,90.14-72.32h0s.05-.47.05-.47l6.74-63.15-17.08,13.78Z"/>
</svg>