<svg id="图层_1" data-name="图层 1" xmlns="http://www.w3.org/2000/svg" viewBox="0 0 240 240">
    <defs>
        <style>.cls-1{fill:#000;}.cls-2{fill:#000;}</style>
    </defs>
    <rect class="cls-2" x="138.15" y="124.61" width="15.39" height="13.9" />
    <path class="cls-1"
        d="M204.35,120.07a84,84,0,0,0-167.68,0l-.85,5.68A62.08,62.08,0,0,0,93.46,192c.89.06,1.79.1,2.69.12a48.06,48.06,0,0,1-5.48,4.9A51.55,51.55,0,0,1,61,207.26a160.32,160.32,0,0,0,54.18,1.47c34.31-5,56-20.41,66.73-30.14a61.09,61.09,0,0,0,8.67-8.41c.51-.6,1-1.2,1.52-1.82a62,62,0,0,0,13.12-42.61ZM133.8,91.15c4-2.46,8.34-4.2,23.77-8.45,7.46-2.06,11-2.87,11.15-4.79.25-2.46-5.26-4.85-5.63-5a14.69,14.69,0,0,0-8.34-.83,25.89,25.89,0,0,1,11.58-.41c2.26.44,8.42,1.67,9.07,4.89.48,2.42-2.34,4.85-3.83,6.16-5.88,5.07-11.67,4.19-19,9.58-1.67,1.23-3.23,2.65-2.88,3.75.25.89,1.61,1.19,2.71,1.47a43.6,43.6,0,0,1,11.06,4.37c1,.63,5.74,3.43,5.31,6-.32,1.81-3.65,2.87-10.32,4.79-4.84,1.42-8.92,2.29-9,2.09s3-.9,7.2-3c2.05-1,6.38-3.25,6-4.79-.14-.67-1.12-1-1.67-1.15-5.65-1.64-15.32-.24-21.27-.42-5.47-.16-13.85-1.83-14.49-5.31C124.64,96.73,130.63,93.08,133.8,91.15Zm-60.67,70c-13.41-16.13-5.75-36.59-5.75-36.59H170.81s7.66,20.46-5.74,36.59S131.46,179,119.62,179,86.58,177.33,73.13,161.2Zm115.19-22.7A11.49,11.49,0,1,1,199.81,127,11.48,11.48,0,0,1,188.32,138.5Z" />
</svg>