<svg id="图层_1" data-name="图层 1" xmlns="http://www.w3.org/2000/svg" viewBox="0 0 240 240"><defs><style>.cls-1{fill:#000;}.cls-2{fill:#000;}</style></defs><path class="cls-1" d="M173.35,172.3l-6.79,25.2-6.78-25.2-25.2-6.79,25.2-6.78,6.78-25.21,6.79,25.21,11.6,3.12,5.72-77.48a21.57,21.57,0,0,0-10.5-20.13L131.71,35.51a21.56,21.56,0,0,0-23.24.81L66.61,65.24a21.58,21.58,0,0,0-9.23,16l-7.66,96.08a21.54,21.54,0,0,0,19.84,23.2l90.36,6.91a21.56,21.56,0,0,0,23.13-19.9l1.34-18.22ZM98.7,169.58H71.84V142.72l14.07-14.07,25.31-25.31,14.4-14.4-7.17-7.17,8.15-8.16,14.15,14.15,8.57-8.57A9.13,9.13,0,0,1,162.23,92.1l-8.57,8.57,14.15,14.15L159.65,123l-7.17-7.18-12.72,12.73-27,27Z"/><polygon class="cls-2" points="198.55 165.51 184.95 161.85 184.4 169.32 198.55 165.51"/><polygon class="cls-2" points="166.56 133.53 159.78 158.73 134.57 165.51 159.78 172.3 166.56 197.5 173.35 172.3 184.4 169.32 184.95 161.85 173.35 158.73 166.56 133.53"/></svg>