<svg id="图层_1" data-name="图层 1" xmlns="http://www.w3.org/2000/svg" viewBox="0 0 240 240">
    <defs>
        <style>.cls-1{fill:#000;}.cls-2{fill:#000;}</style>
    </defs>
    <polygon class="cls-2"
        points="185.71 58.05 120 58.05 54.29 58.05 38.11 90.53 201.89 90.53 185.71 58.05" />
    <path class="cls-1"
        d="M169.12,163.75h-101v-39H45.31v51.4a23.15,23.15,0,0,0,22.94,23.36h103.5a23.15,23.15,0,0,0,22.94-23.36v-51.4H169.12Z" />
    <path class="cls-1" d="M54.29,50.49v7.56H70v-16H62.74A8.45,8.45,0,0,0,54.29,50.49Z" />
    <path class="cls-1" d="M170,42.05v16h15.71V50.49a8.45,8.45,0,0,0-8.45-8.44Z" />
    <polygon class="cls-1"
        points="201.89 90.53 38.11 90.53 20 90.47 32.78 114.73 120 114.73 207.22 114.73 220 90.47 202.71 90.53 201.89 90.53" />
</svg>