<svg id="图层_1" data-name="图层 1" xmlns="http://www.w3.org/2000/svg" viewBox="0 0 240 240">
    <defs>
        <style>.cls-1{fill:#000;}.cls-2{fill:#000;}</style>
    </defs>
    <path class="cls-2"
        d="M148.19,56c6.63-.69,13.59-1.44,19.76-3.54-1.17-.73-1.91-1.12-1.91-1.12V24.45c-7.83,18.72-28.93,19.06-28.93,19.06H113.78A39,39,0,0,0,86.19,54.94l-9.68,9.68a79.78,79.78,0,0,1,30.06-9.9C123.4,52.83,129.45,58,148.19,56Z" />
    <path class="cls-1"
        d="M184.43,125.55V77.21c0-13.08-11.78-21.79-16.48-24.75-6.17,2.1-13.13,2.85-19.76,3.54-18.74,2-24.79-3.17-41.62-1.28a79.78,79.78,0,0,0-30.06,9.9c0,47.32-37.79,48.68-37.79,48.68l30,30c32.34-32.34,52.09-18.73,52.09-18.73a26.3,26.3,0,0,0,18.59-7.7l6.94-6.94v8.68a22,22,0,0,1-22,22h-1.53a65,65,0,0,0-65,65h81.36a46,46,0,0,0,46-46H210C194,159.6,184.43,125.55,184.43,125.55ZM82.72,86,96.51,67.34h14.3s6.64-.51,8.93-5.11C119.74,86,82.72,86,82.72,86Z" />
</svg>