<svg id="图层_1" data-name="图层 1" xmlns="http://www.w3.org/2000/svg" viewBox="0 0 240 240"><defs><style>.cls-1{fill:#000;}.cls-2{fill:#000;}</style></defs><polygon class="cls-1" points="55.83 155.44 57.51 186.14 183.98 186.14 185.61 155.44 55.83 155.44"/><path class="cls-2" d="M217.05,59.13a11.5,11.5,0,0,0-8.45,3.7,56.91,56.91,0,0,0-30.73-9h0a57.19,57.19,0,0,0-57.19,57.19A57.18,57.18,0,0,0,63.5,53.86h0A56.9,56.9,0,0,0,31.88,63.4a11.58,11.58,0,1,0,2.62,7.8,23.5,23.5,0,0,1,18.81,23l1.21,22,.93,17.06H186l.91-17.06,1.17-22a23.48,23.48,0,0,1,17.47-22.69,11.58,11.58,0,1,0,11.52-12.41Z"/></svg>