<svg id="图层_1" data-name="图层 1" xmlns="http://www.w3.org/2000/svg" viewBox="0 0 240 240">
    <defs>
        <style>.cls-1{fill:#000;}.cls-2{fill:#000;}</style>
    </defs>
    <rect class="cls-2" x="166.61" y="41.22" width="21.45" height="45.96"
        transform="translate(97.33 -106.59) rotate(45)" />
    <path class="cls-2" d="M73,168.55l-21-9.31s-9.31,24.83-9.31,39.64c14.8,0,39.64-9.31,39.64-9.31Z" />
    <path class="cls-1"
        d="M166.62,59.75h0l-.05,0c-19.9-13-35.69-7-47.45,4.83C101.73,82,93.14,112,93.14,112l26-26,36.42,36.42s3.32,38.89-36.42,78.64a78.63,78.63,0,0,0,47.5-141.3Z" />
    <path class="cls-1"
        d="M118.48,158.84,82.05,122.41s-3.32-38.89,36.43-78.64A78.63,78.63,0,0,0,71,185.07a.1.1,0,0,0,0,0c19.89,13,35.69,6.95,47.45-4.83,17.39-17.4,26-47.42,26-47.42Z" />
</svg>