<svg id="图层_1" data-name="图层 1" xmlns="http://www.w3.org/2000/svg" viewBox="0 0 240 240">
    <defs>
        <style>.cls-1{fill:#000;}.cls-2{fill:#000;}</style>
    </defs>
    <rect class="cls-2" x="32.52" y="37.82" width="27.92" height="164.36" rx="12.5" />
    <path class="cls-1"
        d="M60.79,51.16V188.84h151.3V51.16Zm75.48,120a51.13,51.13,0,1,1,38.49-84.75,39.24,39.24,0,0,0-68.2,25.46c0,.34,0,.67,0,1s0,.67,0,1a19.62,19.62,0,0,0,39.22-1,19.63,19.63,0,0,1,39.23-1,39,39,0,0,0-5.65-19.34,51,51,0,0,0-4.6-6.12,38.71,38.71,0,0,1,4.6,6.12,51.12,51.12,0,0,1-43.09,78.63Z" />
</svg>