<svg id="图层_1" data-name="图层 1" xmlns="http://www.w3.org/2000/svg" viewBox="0 0 240 240"><defs><style>.cls-1{fill:#000;}.cls-2{fill:#000;}</style></defs><path class="cls-1" d="M94.37,62.06h47.32a37.26,37.26,0,0,0,29-13.88H84.54A23.34,23.34,0,0,0,62.37,64.26a23.28,23.28,0,0,1,.85-2.2Z"/><path class="cls-1" d="M200.77,95.25c8.4,11.77-.2,28.2-14.73,28.2H131.57v-.11H58.91A28.91,28.91,0,0,0,30,152.25h0a28.81,28.81,0,0,0,8,19.95h99.92v.09h23.51A48.56,48.56,0,0,0,210,123.73h0A48.36,48.36,0,0,0,200.77,95.25Z"/><path class="cls-1" d="M200.46,94.82a48.48,48.48,0,0,0-39-19.66H96.16v0H65a3.71,3.71,0,0,1-3.74-3.63A23.33,23.33,0,0,0,84.54,94.82H200.46Z"/><path class="cls-2" d="M186,123.45c14.53,0,23.13-16.43,14.73-28.2-.11-.14-.2-.29-.31-.43h-46a14.52,14.52,0,0,1,1.48.08c.16,0,.31,0,.47.07.32,0,.65.08,1,.15l.55.14.84.22c.19.06.37.14.56.21s.51.18.76.29l.56.26.7.35.54.33c.22.13.44.26.65.41l.51.38c.2.15.4.3.59.46s.32.29.48.43.37.34.54.52.29.31.44.48.33.36.48.55.26.35.39.53.29.39.43.6.23.37.34.56.25.43.36.64.2.4.29.6.21.45.3.68.16.42.23.63.16.47.23.71.12.44.17.66.12.49.16.74.08.45.11.68.06.51.08.76,0,.47,0,.71,0,.28,0,.43,0,.24,0,.35,0,.23,0,.34,0,.26,0,.38,0,.49-.07.73-.06.42-.09.63-.11.58-.18.86l-.09.37a14.25,14.25,0,0,1-13.77,10.6H131.57v.11Z"/><path class="cls-2" d="M65,75.18h31.2v0H94.37a6.54,6.54,0,0,1-6.37-5h0l-.09-.49,0-.23a2.19,2.19,0,0,1,0-.36,1.5,1.5,0,0,1,0-.22v-.2c0-.09,0-.17,0-.25s0-.22,0-.33,0-.23,0-.34,0-.21,0-.32,0-.22.07-.33,0-.2.08-.3a3,3,0,0,1,.11-.32,2.49,2.49,0,0,1,.11-.29,2.92,2.92,0,0,1,.14-.31c0-.09.08-.19.13-.28l.17-.29L88.9,65l.2-.28.18-.24.22-.25.2-.22.25-.23a2.09,2.09,0,0,1,.22-.2l.27-.21.24-.17A2.9,2.9,0,0,1,91,63l.25-.15.32-.16.26-.12.35-.13a1.84,1.84,0,0,1,.25-.09l.39-.1.25-.07.43-.07.22,0c.22,0,.45,0,.68,0H63.22a23.28,23.28,0,0,0-.85,2.2v0c-.11.36-.22.73-.32,1.1,0,0,0,0,0,.06-.09.35-.18.7-.26,1.06l0,.13c-.07.33-.13.66-.18,1a1.42,1.42,0,0,0,0,.2c0,.32-.09.64-.13,1l0,.25c0,.31-.05.63-.08.94a2.83,2.83,0,0,1,0,.29q0,.62,0,1.23h0v0A3.71,3.71,0,0,0,65,75.18Z"/><path class="cls-2" d="M38,172.2h0c.33.34.67.67,1,1h0c.34.32.69.64,1,.94v0c.36.3.71.59,1.08.88l0,0c.36.28.72.55,1.09.81l.07,0c.36.26.73.5,1.11.74l.09.06c.37.23.73.45,1.11.66l.14.08c.36.21.72.4,1.09.59l.19.09c.36.18.72.34,1.08.51l.24.1c.35.16.7.3,1.06.44l.29.11c.34.13.69.25,1,.36l.34.12,1,.3.39.11,1,.23.44.11,1,.17.48.09,1,.13.5.06c.34,0,.68.06,1,.08l.48,0,1.44,0H97.45a27.47,27.47,0,0,1,3.88.28l.41.07a26.79,26.79,0,0,1,6.88,2.1l.75.37a26.5,26.5,0,0,1,6.89,5q.9.9,1.71,1.89c.43.52.84,1.06,1.23,1.61.2.28.39.57.58.85.52.82,1,1.66,1.45,2.53l.36.76a26.8,26.8,0,0,1,2.12,6.91c0,.12,0,.24.05.35a26.42,26.42,0,0,1,.29,3.9v-8.86a27,27,0,0,0-.31-4,26.27,26.27,0,0,0-2.32-7.48,26.73,26.73,0,0,0-1.91-3.34A25.5,25.5,0,0,0,118,182a26.62,26.62,0,0,0-3.6-3.6c-.33-.28-.66-.54-1-.79-.68-.51-1.39-1-2.12-1.44-.36-.22-.73-.43-1.11-.64s-1-.51-1.51-.75c-.66-.31-1.34-.59-2-.84a26.5,26.5,0,0,0-4.86-1.27l-.41-.06a26.05,26.05,0,0,0-3.88-.29h40.47v-.09Z"/></svg>