<svg id="图层_1" data-name="图层 1" xmlns="http://www.w3.org/2000/svg" viewBox="0 0 240 240">
    <defs>
        <style>.cls-1{fill:#ccc;}.cls-2{fill:#4080ff;}</style>
    </defs>
    <path class="cls-2"
        d="M69.12,96.31s6.69-.7-1.05-16.18-5.46-28.51-5.46-28.51-4.4-2.11-13.87,7.22-5.66,33.25,0,37.82S69.12,96.31,69.12,96.31Z" />
    <path class="cls-2"
        d="M191.26,58.84c-9.47-9.33-13.87-7.22-13.87-7.22s2.28,13-5.46,28.51-1.05,16.18-1.05,16.18,14.72,4.93,20.38.35S200.73,68.16,191.26,58.84Z" />
    <path class="cls-1"
        d="M80,209.09a28.23,28.23,0,0,0,28.22-28.23V173.7a11.59,11.59,0,0,1,11.59-11.59h.46a11.59,11.59,0,0,1,11.59,11.59v7.16a28.23,28.23,0,1,0,56.45,0V159.17h-.1c-.21-4-1.42-5.68-1.81-7.09-3.41-12.25-9.61-21.76-14.78-29.55-13.16-19.88-22.79-24.61-21.11-33.78,1.14-6.23,5.85-5.62,10.56-16.19C164,66,167.49,53.69,162.43,49c-2.87-2.67-5.45,0-12.66-2.46-6.74-2.24-7.68-5.58-15.13-9.5a45.12,45.12,0,0,0-13.09-4.39v-.18h-3.1v.18A45.12,45.12,0,0,0,105.36,37c-7.45,3.92-8.39,7.26-15.13,9.5C83,48.93,80.44,46.31,77.57,49,72.51,53.69,76,66,79,72.56c4.71,10.57,9.42,10,10.56,16.19,1.68,9.17-8,13.9-21.11,33.78-5.17,7.79-11.37,17.3-14.78,29.55-.39,1.41-1.6,3-1.81,7.09h-.1v21.69A28.23,28.23,0,0,0,80,209.09Zm32.1-105,7.94-8.9,7.94,8.9a13.68,13.68,0,0,1,0,17.8,10.4,10.4,0,0,1-15.88,0A13.68,13.68,0,0,1,112.06,104.11Z" />
</svg>