<svg id="图层_1" data-name="图层 1" xmlns="http://www.w3.org/2000/svg" viewBox="0 0 240 240">
    <defs>
        <style>.cls-1{fill:#ccc;}.cls-2{fill:#4080ff;}</style>
    </defs>
    <path class="cls-1"
    d="M129.07,80a20.85,20.85,0,1,0,20.84,20.84A20.87,20.87,0,0,0,129.07,80Z" />
    <path
        d="M85.85,29.11A26.28,26.28,0,0,0,59.57,55.39V209.91h114a26.29,26.29,0,0,0,26.28-26.28V29.11Zm24.63,146-11.71-22-24.9.86,9.49-16.32a59,59,0,0,0,36.56,21.21ZM83.66,100.86a45.41,45.41,0,1,1,45.41,45.41A45.41,45.41,0,0,1,83.66,100.86Zm77,52.27-11.71,22-9.56-17.67a59,59,0,0,0,36.15-21.93l10,18.46Z" />
    <path class="cls-2"
        d="M144.66,182.33H32a27.58,27.58,0,0,0,27.57,27.58H172.23A27.58,27.58,0,0,1,144.66,182.33Z" />
</svg>