<?xml version="1.0" encoding="UTF-8"?>
<svg id="_图层_1" data-name="图层 1" xmlns="http://www.w3.org/2000/svg" viewBox="0 0 240 240">
  <defs>
    <style>
      .cls-1 {
        fill: #7d86fb;
      }

      .cls-2 {
        fill: #ccc;
      }
    </style>
  </defs>
  <path class="cls-2" d="M107.99,168.79c-9.38,0-18.76-3.57-25.9-10.71-1.75-1.75-3.32-3.68-4.68-5.73-1.83-2.76-1.07-6.49,1.7-8.31,2.76-1.83,6.49-1.07,8.31,1.7.91,1.38,1.97,2.68,3.15,3.86,4.8,4.8,11.11,7.2,17.41,7.2l-3-18.26c3-.1,9-.21,12-.31.06-10.29-.19-20.99-.82-32.04-1.49-26.07-4.87-50.24-9.3-72.31-47.06.61-85.03,38.92-85.03,86.13s38.57,86.16,86.16,86.16v-37.37h0ZM63.76,118.85v-18.26c0-6.29,5.1-11.4,11.4-11.4s11.4,5.1,11.4,11.4v18.26c0,6.29-5.1,11.4-11.4,11.4s-11.4-5.1-11.4-11.4Z"/>
  <path class="cls-1" d="M206.16,120c0-47.58-38.57-86.16-86.16-86.16-.38,0-.75.02-1.13.03,4.44,22.07,7.82,46.24,9.3,72.31.63,11.06.88,21.75.82,32.04-3,.1-9,.21-12,.31l3,18.26c6.31,0,12.61-2.4,17.41-7.2,1.18-1.18,2.24-2.48,3.15-3.86,1.83-2.76,5.55-3.52,8.31-1.7,2.76,1.83,3.52,5.55,1.7,8.31-1.36,2.05-2.93,3.98-4.68,5.73-7.14,7.14-16.52,10.71-25.9,10.71v37.37c47.58,0,86.16-38.57,86.16-86.16ZM164.23,118.85c0,6.29-5.1,11.4-11.4,11.4s-11.4-5.1-11.4-11.4v-18.26c0-6.29,5.1-11.4,11.4-11.4s11.4,5.1,11.4,11.4v18.26Z"/>
</svg>