<svg id="图层_1" data-name="图层 1" xmlns="http://www.w3.org/2000/svg" viewBox="0 0 240 240"><defs><style>.cls-1{fill:#ccc;}.cls-2{fill:#4080ff;}</style></defs><path class="cls-1" d="M186.83,95.79V71h.22V45h-7.53a20.62,20.62,0,0,0-19.71,14.55H80.62A20.61,20.61,0,0,0,60.92,45H53.39V59.55h-.22V95.79A60.56,60.56,0,0,0,39.5,134.2h0A60.8,60.8,0,0,0,100.3,195h39.4a60.8,60.8,0,0,0,60.8-60.8h0A60.56,60.56,0,0,0,186.83,95.79ZM71.49,79.25h33.09V87.1H96v8.62H87.34V87.1H71.49ZM156.28,162a21.5,21.5,0,0,1-21.5,21.5H105.22A21.5,21.5,0,0,1,83.72,162v-5.59h72.56Zm12.22-40.66a23.88,23.88,0,0,1-23.88,23.87H95.38A23.88,23.88,0,0,1,71.5,121.37h0A23.87,23.87,0,0,1,95.38,97.5h49.24a23.87,23.87,0,0,1,23.88,23.87Zm0-34.27H152.66v8.62H144V87.1h-8.62V79.25h33.09Z"/><rect class="cls-2" x="102.05" y="156.44" width="35.91" height="10.85"/><circle class="cls-2" cx="96.46" cy="121.37" r="12.74"/><circle class="cls-2" cx="143.54" cy="121.37" r="12.74"/></svg>