<svg id="图层_1" data-name="图层 1" xmlns="http://www.w3.org/2000/svg" viewBox="0 0 240 240"><defs><style>.cls-1{fill:#ccc;}.cls-2{fill:#4080ff;}</style></defs><path class="cls-1" d="M80.92,66.47a8,8,0,0,1,8,8v16.4H72.52a8,8,0,0,1-8-8V66.47h16.4m0-22H42.52v38.4a30,30,0,0,0,30,30h38.4V74.47a30,30,0,0,0-30-30Z"/><path class="cls-1" d="M175.48,66.47v16.4a8,8,0,0,1-8,8h-16.4V74.47a8,8,0,0,1,8-8h16.4m22-22h-38.4a30,30,0,0,0-30,30v38.4h38.4a30,30,0,0,0,30-30V44.47Z"/><path class="cls-1" d="M88.92,149.13v16.4a8,8,0,0,1-8,8H64.52v-16.4a8,8,0,0,1,8-8h16.4m22-22H72.52a30,30,0,0,0-30,30v38.4h38.4a30,30,0,0,0,30-30v-38.4Z"/><path class="cls-2" d="M167.48,149.13a8,8,0,0,1,8,8v16.4h-16.4a8,8,0,0,1-8-8v-16.4h16.4m0-22h-38.4v38.4a30,30,0,0,0,30,30h38.4v-38.4a30,30,0,0,0-30-30Z"/></svg>