<?xml version="1.0" encoding="UTF-8"?>
<svg id="_图层_1" data-name="图层 1" xmlns="http://www.w3.org/2000/svg" viewBox="0 0 240 240">
  <defs>
    <style>
      .cls-1 {
        fill: #7d86fb;
      }

      .cls-2 {
        fill: #ccc;
      }
    </style>
  </defs>
  <path class="cls-2" d="M155.74,141.51l-39.42,16.34-5.52,2.29-66.74,49.52h85.16c34.22,0,61.96-27.74,61.96-61.96v-47.2l-3.5,2.6c-.68,3.17-1.64,6.31-2.91,9.37-5.48,13.25-15.8,23.56-29.04,29.05Z"/>
  <path class="cls-1" d="M93.12,101.86l17.46,42.12,39.42-16.34c2.47-1.02,4.77-2.27,6.9-3.71,1.06-.72,2.08-1.49,3.06-2.3.97-.81,1.9-1.67,2.78-2.56.88-.89,1.71-1.83,2.5-2.8.78-.97,1.52-1.97,2.2-3.01,3.08-4.66,5.13-9.95,5.98-15.48.19-1.23.32-2.47.39-3.72.04-.62.06-1.25.06-1.88,0-1.26-.04-2.52-.16-3.78-.06-.63-.13-1.26-.22-1.89-.27-1.89-.68-3.79-1.25-5.67-.38-1.25-.82-2.5-1.33-3.73l-2.56-6.18-75.23,30.93Z"/>
  <path class="cls-2" d="M222.08,37.16h-119.19l-9.79,9.79-27.56,27.56-45.88,45.88c-4.34,4.34.43,11.5,6.11,9.17l53.48-21.98,13.87-5.7,75.23-30.93,13.87-5.7,41.99-17.26c5.69-2.34,4.02-10.81-2.14-10.81Z"/>
</svg>