<?xml version="1.0" encoding="UTF-8"?>
<svg id="_图层_1" data-name="图层 1" xmlns="http://www.w3.org/2000/svg" viewBox="0 0 240 240">
  <defs>
    <style>
      .cls-1 {
        fill: #7d86fb;
      }

      .cls-2 {
        fill: #ccc;
      }
    </style>
  </defs>
  <polygon class="cls-2" points="202.48 52.99 167.97 52.99 167.74 54.66 147.97 195.4 202.48 195.4 202.48 52.99"/>
  <path class="cls-1" d="M113.73,52.99l-2.23,4.94-8.18,18.12-2.75,6.1v84.46c0,10.32-2.8,20.2-8.02,28.8h43.3l20-142.41h-42.12Z"/>
  <path class="cls-2" d="M90.15,52.99h-14.89v-24.24h-17.06v24.24h-25.31l8.18,18.12h3.82v95.5c0,11.56,4.59,22.65,12.77,30.83l9.07,9.07,9.07-9.07c.66-.66,1.28-1.34,1.89-2.03.16-.18.31-.35.46-.53,6.69-7.86,10.42-17.87,10.42-28.26v-95.5h3.82l8.18-18.12h-10.42Z"/>
</svg>