<svg id="图层_1" data-name="图层 1" xmlns="http://www.w3.org/2000/svg" viewBox="0 0 240 240">
    <defs>
        <style>.cls-1{fill:#ccc;}.cls-2{fill:#4080ff;}</style>
    </defs>
    <path class="cls-2" d="M168.37,141.6l-39-39-17,17,39.15,39.14A29.2,29.2,0,0,1,168.37,141.6Z" />
    <path class="cls-2"
        d="M150,165.37,92.11,182.88l6.94,23,58.27-17.62a29,29,0,0,1-7.49-19.5A31.28,31.28,0,0,1,150,165.37Z" />
    <path class="cls-1"
        d="M179,139.6A29.09,29.09,0,0,0,150,165.37a31.28,31.28,0,0,0-.19,3.37A29.13,29.13,0,1,0,179,139.6Zm0,18.52a10.62,10.62,0,1,1-10.61,10.62A10.62,10.62,0,0,1,179,158.12Z" />
    <circle class="cls-1" cx="95.58" cy="194.37" r="19.67"
        transform="translate(-107.26 270.33) rotate(-84.35)" />
    <path class="cls-1"
        d="M95.58,142.91A57.13,57.13,0,1,0,38.45,85.78,57.13,57.13,0,0,0,95.58,142.91Zm0-77.94A20.81,20.81,0,1,1,74.77,85.78,20.81,20.81,0,0,1,95.58,65Z" />
</svg>