<svg id="图层_1" data-name="图层 1" xmlns="http://www.w3.org/2000/svg" viewBox="0 0 240 240">
    <defs>
        <style>.cls-1{fill:#fedaa3;}.cls-2{fill:#4080ff;}</style>
    </defs>
    <path class="cls-2"
        d="M181.51,66.09a81.24,81.24,0,0,1,7.36,9.81A62.51,62.51,0,0,0,181.51,66.09Z" />
    <circle class="cls-2" cx="103.57" cy="108.54" r="10.49" />
    <path class="cls-1"
        d="M188.87,75.9a62.65,62.65,0,0,1,9.07,31,31.47,31.47,0,0,0-62.9,1.62,31.47,31.47,0,0,1-62.9,1.62c0-.54,0-1.08,0-1.62s0-1.08,0-1.62A62.92,62.92,0,0,1,181.51,66.09a81.89,81.89,0,1,0,7.36,9.81ZM166.51,119A10.49,10.49,0,1,1,177,108.54,10.49,10.49,0,0,1,166.51,119Z" />
</svg>