<svg id="图层_1" data-name="图层 1" xmlns="http://www.w3.org/2000/svg" viewBox="0 0 240 240">
    <defs>
        <style>.cls-1{fill:#fedaa3;}.cls-2{fill:#44afff;}</style>
    </defs>
    <path class="cls-2"
        d="M209,53.2a8.11,8.11,0,0,0-.86,0,8.11,8.11,0,0,0,.05-.86,8.47,8.47,0,1,0-15.31,5L189,61.18A67.35,67.35,0,0,1,141.4,80.91h0A30.37,30.37,0,0,0,111,111.28v13.19a26.42,26.42,0,0,0,26.42,26.42h12.9a30.37,30.37,0,0,0,30.37-30.37V120a67.36,67.36,0,0,1,19.73-47.63l3.69-3.69A8.47,8.47,0,1,0,209,53.2Zm-8.43,7.66,0,0h0Z" />
    <path class="cls-1"
        d="M68.58,192.94H170.37c19.65,0,30.25-23.05,17.45-38l-.36-.43a50.23,50.23,0,0,1-37.11,16.35h-12.9A46.47,46.47,0,0,1,91,124.47V111.28a50.34,50.34,0,0,1,22.91-42.19,20.62,20.62,0,0,0-28.32.78L37.52,118C9.86,145.63,29.45,192.94,68.58,192.94Z" />
</svg>