<svg id="图层_1" data-name="图层 1" xmlns="http://www.w3.org/2000/svg" viewBox="0 0 240 240">
    <defs>
        <style>.cls-1{fill:#fedaa3;}.cls-2{fill:#44afff;}</style>
    </defs>
    <path class="cls-2"
        d="M120.18,36c0,52.12-33.17,85.3-85.3,85.3,52.13,0,85.3,33.17,85.3,85.29,0-52.12,33.17-85.29,85.29-85.29C153.35,121.26,120.18,88.08,120.18,36Zm0,118.57c0-20.34-12.94-33.27-33.28-33.27,20.34,0,33.28-12.94,33.28-33.28,0,20.34,12.94,33.28,33.27,33.28C133.12,121.26,120.18,134.19,120.18,154.53Z" />
    <circle class="cls-1" cx="68.77" cy="69.85" r="25.53" />
    <circle class="cls-1" cx="171.5" cy="69.94" r="25.53" />
    <circle class="cls-1" cx="68.77" cy="172.66" r="25.53" />
    <circle class="cls-1" cx="171.5" cy="172.66" r="25.53" />
</svg>