<svg id="图层_1" data-name="图层 1" xmlns="http://www.w3.org/2000/svg" viewBox="0 0 240 240">
    <defs>
        <style>.cls-1{fill:#fedaa3;}.cls-2{fill:#4080ff;}</style>
    </defs>
    <polygon class="cls-2"
        points="83.57 157.9 84.41 156.45 63.36 120 34.55 169.91 92.18 169.91 85.25 157.9 83.57 157.9" />
    <polygon class="cls-2" points="121 20.17 92.18 70.08 149.82 70.08 121 20.17" />
    <polygon class="cls-2"
        points="178.64 120 157.59 156.45 158.43 157.9 156.75 157.9 149.82 169.91 207.46 169.91 178.64 120" />
    <polygon class="cls-1"
        points="84.41 156.45 105.45 120 84.41 83.55 83.57 82.1 85.25 82.1 106.41 82.1 116.88 100.22 117.53 101.25 118.12 100.22 128.59 82.1 156.75 82.1 158.43 82.1 157.59 83.55 136.54 120 124.46 138.77 123.88 139.78 113.41 157.9 85.25 157.9 92.18 169.91 121 219.83 149.82 169.91 156.75 157.9 133.69 157.9 146.06 136.48 157.59 156.45 178.64 120 207.46 70.08 149.82 70.08 92.18 70.08 34.55 70.08 63.36 120 84.41 156.45" />
</svg>