<?xml version="1.0" encoding="UTF-8"?>
<svg id="_图层_1" data-name="图层 1" xmlns="http://www.w3.org/2000/svg" viewBox="0 0 240 240">
  <defs>
    <style>
      .cls-1 {
        fill: #7d86fb;
      }

      .cls-2 {
        fill: #fedaa3;
      }
    </style>
  </defs>
  <path class="cls-2" d="M114.25,166.72c-8.98,0-17.96-3.42-24.8-10.25-1.68-1.68-3.18-3.52-4.48-5.48-1.75-2.65-1.02-6.21,1.62-7.96,2.65-1.75,6.21-1.02,7.96,1.62.87,1.32,1.89,2.56,3.02,3.7,4.6,4.6,10.63,6.89,16.67,6.89l-2.87-17.48c2.87-.1,8.62-.2,11.49-.3.05-9.86-.19-20.1-.79-30.68-1.42-24.96-4.66-48.1-8.91-69.24-45.06.58-81.42,37.27-81.42,82.47s36.94,82.5,82.5,82.5v-35.78h0ZM71.9,118.9v-17.49c0-6.03,4.89-10.91,10.91-10.91s10.91,4.89,10.91,10.91v17.49c0,6.03-4.89,10.91-10.91,10.91s-10.91-4.89-10.91-10.91Z"/>
  <path class="cls-1" d="M208.25,120c0-45.56-36.94-82.5-82.5-82.5-.36,0-.72.02-1.08.03,4.25,21.13,7.48,44.28,8.91,69.24.6,10.59.84,20.83.79,30.68-2.87.1-8.62.2-11.49.3l2.87,17.48c6.04,0,12.08-2.3,16.67-6.89,1.13-1.13,2.15-2.37,3.02-3.7,1.75-2.65,5.31-3.37,7.96-1.62,2.65,1.75,3.37,5.31,1.62,7.96-1.3,1.96-2.81,3.81-4.48,5.48-6.84,6.84-15.82,10.26-24.8,10.26v35.78c45.56,0,82.5-36.94,82.5-82.5ZM168.1,118.9c0,6.03-4.89,10.91-10.91,10.91s-10.91-4.89-10.91-10.91v-17.49c0-6.03,4.89-10.91,10.91-10.91s10.91,4.89,10.91,10.91v17.49Z"/>
</svg>