<svg id="图层_1" data-name="图层 1" xmlns="http://www.w3.org/2000/svg" viewBox="0 0 240 240">
    <defs>
        <style>.cls-1{fill:#fedaa3;}.cls-2{fill:#4080ff;}</style>
    </defs>
    <rect class="cls-2" x="64.64" y="117.07" width="25.55" height="66.53"
        transform="translate(128.97 -10.71) rotate(45)" />
    <rect class="cls-2" x="153.39" y="117.07" width="25.55" height="66.53"
        transform="translate(-57.63 161.53) rotate(-45)" />
    <path class="cls-1"
        d="M110.11,92.72l-4.26-4.26V47.27l.28-.24h-55a25.7,25.7,0,0,0,0,51.39h0c11.59,0,26.66-8.84,27.7-20.39l.76-8.4V97.35a49.56,49.56,0,0,0,49.57,49.56h0a49.56,49.56,0,0,0,49.56-49.56V92.72Z" />
    <path class="cls-1"
        d="M214.6,92.73a24.94,24.94,0,0,0-35.29,0l-.57.57,16.79,16.79a24.94,24.94,0,0,0,35.29,0l.57-.57Z" />
    <path class="cls-1"
        d="M120.69,215.47A105.28,105.28,0,0,0,214,159l-12.12-12.12a89.1,89.1,0,0,1-162.37,0L27.39,159A105.26,105.26,0,0,0,120.69,215.47Z" />
</svg>