<svg id="图层_1" data-name="图层 1" xmlns="http://www.w3.org/2000/svg" viewBox="0 0 240 240">
    <defs>
        <style>.cls-1{fill:#fedaa3;}.cls-2{fill:#44afff;}</style>
    </defs>
    <path class="cls-2"
        d="M117,166.53a18.12,18.12,0,0,1-12.92-5.36,5,5,0,0,1,7.07-7.07,8.27,8.27,0,0,0,11.7,0,5,5,0,0,1,7.07,7.07A18.12,18.12,0,0,1,117,166.53Z" />
    <path class="cls-1" d="M100.84,215.74H96.23S98,215.81,100.84,215.74Z" />
    <path class="cls-1"
        d="M138.11,20.29a39.34,39.34,0,0,0-38,29.37,73.05,73.05,0,0,0-44.38,67.19v67.57c0,19.75-23.49,19.75-23.49,19.75H96.57c31.32,0,30-22.47,30-22.47h-4a43.14,43.14,0,0,1-43.14-43.15V118l32.25-32.26L152.4,117v65.36c0,29.45-38.14,33-51.56,33.36h67a33.88,33.88,0,0,0,33.88-33.87v-65a72.84,72.84,0,0,0-24.5-54.55c.07-.88.11-1.79.11-2.74A39.31,39.31,0,0,0,138.11,20.29Zm-9.37,23.54h0a73.79,73.79,0,0,0-8.18.46,23.26,23.26,0,0,1,39.05,6.38A72.74,72.74,0,0,0,128.74,43.83Z" />
</svg>