<svg id="图层_1" data-name="图层 1" xmlns="http://www.w3.org/2000/svg" viewBox="0 0 240 240">
    <defs>
        <style>.cls-1{fill:#fedaa3;}.cls-2{fill:#4080ff;}</style>
    </defs>
    <polygon class="cls-2" points="142.9 123 142.9 143.94 198.74 143.94 142.9 123" />
    <path class="cls-1"
        d="M138.73,42.1A78,78,0,0,0,60.89,101a9.69,9.69,0,0,1-9.42,7.3H35.18a8.8,8.8,0,0,0-8.8,8.81v.26a8.8,8.8,0,0,0,8.8,8.8H58.83v.07H84.62a8.8,8.8,0,0,1,8.8,8.8v.26a8.8,8.8,0,0,1-8.8,8.8H62.39a.14.14,0,0,0,0,.07H51.27a8.8,8.8,0,0,0-8.8,8.8v.27a8.8,8.8,0,0,0,8.8,8.8H70.9l0,.06h29.43a8.81,8.81,0,0,1,8.8,8.81v.26a8.8,8.8,0,0,1-8.8,8.8H86.76l.08.07H67.36a8.8,8.8,0,0,0-8.8,8.8v.26a8.8,8.8,0,0,0,8.8,8.81h69.27a77.93,77.93,0,0,0,2.1-155.83Zm4.17,101.84H109.4l11-29.37,22.49-60V123l55.84,20.94Z" />
</svg>