<svg id="图层_1" data-name="图层 1" xmlns="http://www.w3.org/2000/svg" viewBox="0 0 240 240">
    <defs>
        <style>.cls-1{fill:#fedaa3;}.cls-2{fill:#44afff;}</style>
    </defs>
    <path class="cls-2"
        d="M179.11,141.16h7.67a16.14,16.14,0,0,1,16.14,16.14v0a16.14,16.14,0,0,1-16.14,16.14h-7.67a0,0,0,0,1,0,0V141.16A0,0,0,0,1,179.11,141.16Z" />
    <path class="cls-2"
        d="M37.08,141.32h7.67a16.14,16.14,0,0,1,16.14,16.14v0A16.14,16.14,0,0,1,44.75,173.6H37.08a0,0,0,0,1,0,0V141.32A0,0,0,0,1,37.08,141.32Z"
        transform="translate(97.96 314.92) rotate(-180)" />
    <path class="cls-1" d="M220,114.08H190.58v27.08H220a13.54,13.54,0,1,0,0-27.08Z" />
    <path class="cls-1"
        d="M6.42,127.62A13.55,13.55,0,0,0,20,141.16H49.42V114.08H20A13.55,13.55,0,0,0,6.42,127.62Z" />
    <path class="cls-1"
        d="M160,62.17V50.69a25.18,25.18,0,0,0-25.18-25.18H105.22A25.18,25.18,0,0,0,80,50.69V62.17a61.71,61.71,0,0,0-21.87,47.17v43.32A61.83,61.83,0,0,0,120,214.49h0a61.83,61.83,0,0,0,61.82-61.83v-11.5h0V109.34A61.71,61.71,0,0,0,160,62.17Zm5.86,90.49a45.83,45.83,0,1,1-91.65,0v-9h91.65Z" />
</svg>