<svg id="图层_1" data-name="图层 1" xmlns="http://www.w3.org/2000/svg" viewBox="0 0 240 240">
    <defs>
        <style>.cls-1{fill:#fedaa3;}.cls-2{fill:#44afff;}</style>
    </defs>
    <path class="cls-2"
        d="M130.47,185.11A81.43,81.43,0,0,1,88.6,173.57v31.71H200.43V145.8A82,82,0,0,1,130.47,185.11Z" />
    <path class="cls-1" d="M87.87,173.14a82.81,82.81,0,0,1-19.73-16.86L39.57,184.85v20.43h17Z" />
    <path class="cls-1"
        d="M175,49.17a70,70,0,0,0-89,0c-1.73,1.42-3.39,2.93-5,4.51A70.21,70.21,0,0,0,72.46,64Q70.57,66.83,69,69.8c-.53,1-1,2-1.54,3a69.67,69.67,0,0,0-6.9,30.33,70.43,70.43,0,0,0,.36,7.15c.12,1.18.27,2.34.45,3.5a68.79,68.79,0,0,0,3.44,13.4c.39,1.07.81,2.13,1.25,3.18a69.93,69.93,0,0,0,4.63,9q1.76,2.9,3.77,5.59c.71,1,1.45,1.88,2.21,2.79,1,1.25,2.13,2.46,3.25,3.63q1.16,1.22,2.37,2.37c1.21,1.15,2.44,2.27,3.73,3.33.86.71,1.73,1.4,2.63,2.07s1.82,1.33,2.75,2c1.66,1.12,3.38,2.16,5.13,3.13.22.12.43.26.64.37a69.65,69.65,0,0,0,19.25,7,72.26,72.26,0,0,0,10.5,1.33q1.78.09,3.6.09t3.6-.09a72.44,72.44,0,0,0,10.5-1.33,69.47,69.47,0,0,0,19.24-7,66.08,66.08,0,0,0,5.77-3.5q2.79-1.89,5.39-4c1.28-1.06,2.52-2.18,3.72-3.33.81-.77,1.6-1.56,2.38-2.37a71.17,71.17,0,0,0,5.46-6.42q2-2.7,3.77-5.59a69.93,69.93,0,0,0,4.63-9c.44-1,.86-2.11,1.25-3.18.32-.86.6-1.73.88-2.6a71.79,71.79,0,0,0,2.08-8q.27-1.36.48-2.76c.18-1.16.32-2.32.44-3.5a70.42,70.42,0,0,0,.37-7.15,69.67,69.67,0,0,0-6.9-30.33c-.49-1-1-2-1.55-3-1.07-2-2.25-3.9-3.5-5.76a70.85,70.85,0,0,0-8.54-10.36C178.35,52.1,176.7,50.59,175,49.17Zm7.6,75.43a56.35,56.35,0,0,1-52.1,34.89V103.15h56.34A56.12,56.12,0,0,1,182.57,124.6Z" />
</svg>