<svg id="图层_1" data-name="图层 1" xmlns="http://www.w3.org/2000/svg" viewBox="0 0 240 240">
    <defs>
        <style>.cls-1{fill:#fedaa3;}.cls-2{fill:#44afff;}</style>
    </defs>
    <path class="cls-1"
        d="M73.38,36.53,25.77,119l47.61,82.47h95.24L216.23,119,168.62,36.53ZM85.49,141.81,71.93,158.37,49.2,119,71.93,79.63,85.49,96.19,72.33,119Zm21.35,16.56H89.7l45.46-78.74H152.3Zm86-39.37-22.73,39.37-13.56-16.56L169.67,119,156.51,96.19l13.56-16.56Z" />
    <polygon class="cls-2" points="85.5 141.81 99.26 141.81 89.7 158.37 71.93 158.37 85.5 141.81" />
    <polygon class="cls-2" points="152.28 79.63 170.04 79.63 156.48 96.19 142.71 96.19 152.28 79.63" />
</svg>