<svg id="图层_1" data-name="图层 1" xmlns="http://www.w3.org/2000/svg" viewBox="0 0 240 240">
    <defs>
        <style>.cls-1{fill:#fedaa3;}.cls-2{fill:#44afff;}</style>
    </defs>
    <path class="cls-2"
        d="M84.66,144.24c-3.76,3.38-8,7.18-13.06,11.65L50.75,135v19.8l15.43,15.43-17.6,17.6.09,13.51,13.51.09,17.6-17.6,15.44,15.44H115L94.17,178.46c7-7.92,12.43-14,17.09-19.09-6-3.61-12.21-7.07-18.33-10.49Q88.76,146.56,84.66,144.24Z" />
    <path class="cls-2"
        d="M204.38,72.46c0-22.75-.7-25.08-.7-25.08s-2.33-.71-25.08-.71c-21.48,0-31.66,22.3-54.22,53.54l25.48,25.48C181.19,103.22,204.38,93.94,204.38,72.46Z" />
    <polygon class="cls-1"
        points="155.61 184.63 179.24 208.25 200.18 187.32 176.55 163.69 155.61 184.63 155.61 184.63" />
    <path class="cls-1"
        d="M37.75,76.34a91.42,91.42,0,0,0,3.14,16.12,40.47,40.47,0,0,0,2.56,6.62,44.7,44.7,0,0,0,2.64,4.65,49.06,49.06,0,0,0,3.2,4.39c.77.95,1.58,1.89,2.42,2.81s1.72,1.82,2.64,2.71,1.85,1.77,2.83,2.64l1.48,1.29c1,.85,2.05,1.69,3.11,2.52,1.59,1.25,3.25,2.47,4.95,3.68,1.14.8,2.3,1.6,3.49,2.39L72,127.33c1.2.78,2.42,1.56,3.66,2.33,4.87,3,10,6,15.25,8.92,5.46,3.08,11,6.15,16.61,9.33l4.08,2.36q2,1.18,4.05,2.4l1.21.73c1.61,1,3.21,2,4.79,3,1.32.84,2.63,1.68,3.92,2.54s2.58,1.74,3.85,2.62,2.52,1.79,3.75,2.7A120.93,120.93,0,0,1,147,176l3.51-3.5,3.59-3.6,1.78-1.77.87-.88,1.71-1.7,9.48-9.49-24.58-24.57-23.75-23.76L46.72,33.86a46.26,46.26,0,0,0-5.78,12c-.38,1.11-.75,2.29-1.09,3.55a70.18,70.18,0,0,0-2.44,15.76c0,.87-.06,1.76-.06,2.66s0,1.82,0,2.75C37.43,72.41,37.55,74.35,37.75,76.34Z" />
</svg>