<?xml version="1.0" encoding="UTF-8"?>
<svg id="_图层_1" data-name="图层 1" xmlns="http://www.w3.org/2000/svg" viewBox="0 0 240 240">
  <defs>
    <style>
      .cls-1 {
        fill: #7d86fb;
      }

      .cls-2 {
        fill: #fedaa3;
      }
    </style>
  </defs>
  <circle class="cls-1" cx="120" cy="38.34" r="19.03"/>
  <path class="cls-2" d="M122.34,63.4h-4.68c-45.65,0-82.66,37.01-82.66,82.66h0c0,32.38,26.25,58.63,58.63,58.63h52.73c32.38,0,58.63-26.25,58.63-58.63h0c0-45.65-37.01-82.66-82.66-82.66ZM98.08,144.67c0,5.38-4.36,9.74-9.74,9.74h-1.16c-5.38,0-9.74-4.36-9.74-9.74v-21.25c0-5.38,4.36-9.74,9.74-9.74h1.16c5.38,0,9.74,4.36,9.74,9.74v21.25ZM164.94,144.67c0,5.38-4.36,9.74-9.74,9.74h-1.16c-5.38,0-9.74-4.36-9.74-9.74v-21.25c0-5.38,4.36-9.74,9.74-9.74h1.16c5.38,0,9.74,4.36,9.74,9.74v21.25Z"/>
</svg>