<svg id="图层_1" data-name="图层 1" xmlns="http://www.w3.org/2000/svg" viewBox="0 0 240 240">
    <defs>
        <style>.cls-1{fill:#fedaa3;}.cls-2{fill:#44afff;}</style>
    </defs>
    <path class="cls-2"
        d="M153,86.68A47.57,47.57,0,1,0,153,154,47.57,47.57,0,0,0,153,86.68Zm-22.9,44.38a15.19,15.19,0,1,1,0-21.48A15.19,15.19,0,0,1,130.09,131.06Z" />
    <path class="cls-1"
        d="M191.81,47.86c-13.5-13.5-42.33-7.94-72.46,11.51C89.23,39.92,60.4,34.36,46.9,47.86S39,90.2,58.41,120.32c-19.46,30.12-25,59-11.51,72.46s42.33,7.94,72.45-11.52c30.13,19.46,59,25,72.46,11.51s7.94-42.33-11.51-72.45C199.75,90.2,205.31,61.36,191.81,47.86ZM176.76,115q-1.09,2.63-2.38,5.28,1.29,2.64,2.38,5.28c8.17,19.72,7.77,38.35-3,49.12s-29.41,11.17-49.13,3c-1.75-.72-3.51-1.52-5.28-2.38-1.76.86-3.52,1.66-5.27,2.38-19.72,8.17-38.36,7.77-49.13-3s-11.17-29.4-3-49.12Q63,123,64.33,120.32,63,117.67,62,115c-8.17-19.72-7.77-38.35,3-49.12s29.41-11.17,49.13-3q2.63,1.08,5.27,2.37Q122,64,124.63,62.92c19.72-8.17,38.35-7.77,49.13,3S184.93,95.32,176.76,115Z" />
</svg>