<svg id="图层_1" data-name="图层 1" xmlns="http://www.w3.org/2000/svg" viewBox="0 0 240 240">
    <defs>
        <style>.cls-1{fill:#fedaa3;}.cls-2{fill:#4080ff;}</style>
    </defs>
    <path
        d="M120.3,53.92A132.93,132.93,0,0,0,5.11,120.4L68.41,157a59.93,59.93,0,0,1,103.77,0l63.31-36.55A133,133,0,0,0,120.3,53.92Z" />
    <path class="cls-2"
        d="M120.3,169.87a17,17,0,0,1,14.75,8.52l18.56-10.72a38.47,38.47,0,0,0-66.63,0l18.56,10.72A17,17,0,0,1,120.3,169.87Z" />
    <path class="cls-2" d="M135.05,178.39a17,17,0,0,0-29.51,0l14.76,8.52Z" />
    <path class="cls-1" d="M105.54,195.42a17,17,0,0,0,29.51,0l-14.75-8.51Z" />
</svg>