<svg id="图层_1" data-name="图层 1" xmlns="http://www.w3.org/2000/svg" viewBox="0 0 240 240">
    <defs>
        <style>.cls-1{fill:#fedaa3;}.cls-2{fill:#4080ff;}</style>
    </defs>
    <path class="cls-2"
        d="M213.5,112.64A95.3,95.3,0,0,0,106.57,35.17,95.43,95.43,0,0,0,48.5,67.27,97.12,97.12,0,0,0,25,129.58v.12l0,.13c.2,1.79.39,3.59.58,5.39.44,4.12.89,8.39,1.52,12.59.37,2.51,1.11,5.61,3.47,7.28a7.63,7.63,0,0,0,4.48,1.23,19.34,19.34,0,0,0,3.66-.41,29,29,0,0,0,7.8-3.19c1.5-.8,3.87-2.79,2.85-7.13a72.84,72.84,0,0,1-.41-30.4c7-37.63,45.79-64.61,83.1-57.75,40.7,7.49,66.76,45.49,59.33,86.51-1.13,6.23.44,9,6.22,10.83a31.07,31.07,0,0,0,8.43,1.13l.59,0c2.25.12,5.12-.73,6.07-5.2A100.89,100.89,0,0,0,213.5,112.64Z" />
    <path class="cls-1"
        d="M170.8,157.65c-4.4-4.46-8.84-8.9-13.25-13.36-1-1-1.94-2-3.46-3.64L174.51,123c-26.33-6.52-42.55-24.51-54.29-48-11.74,23.52-28,41.51-54.28,48l20.42,17.7c-1.53,1.61-2.48,2.64-3.47,3.64Q76.28,151,69.64,157.65c-11.09,11.24-23.43,15-40.55,12.79,12.76,10.75,27.2,23.06,40.57,34.3,1.17-4,1.23-6.52,2.78-10.79a57.18,57.18,0,0,1,13-20.67c4.12-4.23,7.75-8.12,12.38-11.68,7.66-5.89,6.54-8.1,6.23-15.82-.1-2.36-3.14-4.6-5.09-7.26l21.3-20.39h0l21.29,20.39c-1.95,2.66-5,4.9-5.09,7.26-.31,7.72-1.43,9.93,6.23,15.82,4.64,3.56,8.26,7.45,12.38,11.68A57.18,57.18,0,0,1,168,194c1.55,4.27,1.62,6.78,2.78,10.79,13.38-11.24,27.81-23.55,40.58-34.3C194.23,172.64,181.9,168.89,170.8,157.65Z" />
</svg>