<svg id="图层_1" data-name="图层 1" xmlns="http://www.w3.org/2000/svg" viewBox="0 0 240 240"><defs><style>.cls-1{fill:#fedaa3;}.cls-2{fill:#44afff;}</style></defs><path class="cls-1" d="M79.07,194.59A10.41,10.41,0,0,0,89.47,205h10.87V176.34a106.39,106.39,0,0,1-21.27-4.87Z"/><path class="cls-1" d="M139.66,205h10.87a10.41,10.41,0,0,0,10.4-10.41V171.47a106.39,106.39,0,0,1-21.27,4.87Z"/><path class="cls-2" d="M120,35a81,81,0,0,0-81,81c0,29.77,16.08,47.19,40,55.51a106.39,106.39,0,0,0,21.27,4.87c3,.39,6.15.68,9.31.88V205h21.27V177.18c3-.2,5.89-.47,8.74-.84a106.39,106.39,0,0,0,21.27-4.87c23.95-8.32,40-25.74,40-55.51A81,81,0,0,0,120,35ZM87,148.44a20.28,20.28,0,1,1,20.28-20.28A20.28,20.28,0,0,1,87,148.44Zm63,0a20.28,20.28,0,1,1,20.28-20.28A20.28,20.28,0,0,1,150,148.44Z"/></svg>