<svg id="图层_1" data-name="图层 1" xmlns="http://www.w3.org/2000/svg" viewBox="0 0 240 240"><defs><style>.cls-1{fill:#1c1c1c;}.cls-2{fill:#4080ff;}</style></defs><path class="cls-1" d="M195.67,43.61c7.59,11.38,8.54,25.6,7.59,38.87,0,16.12-5.69,37-23.71,41.72-2.84,0-5.68-1.9-5.68-4.74C176.71,95.76,172,71.1,154,54,124.56,25.6,78.11,22.75,44,43.61c22.76-9.48,49.31-12.33,71.11,2.84,3.8,2.85,7.59,6.64,8.54,11.38.94,3.79,0,7.59-3.8,6.64-28.44-3.79-55,5.69-73,29.39C24.06,124.2,26,165,44,196.26,34.49,175.4,31.65,149.8,43,128.94c4.74-6.64,12.32-17.07,21.8-11.38,1.9,8.54-.95,16.12,0,24.65,1.9,12.33,5.69,23.71,13.28,34.14,27.49,37.92,79.64,42.66,117.56,19.91-22.75,9.48-49.3,12.32-71.11-2.85-5.68-4.74-13.27-14.22-4.74-19.91,27.5,6.64,55.94-4.74,73-27.49,9.48-14.23,17.06-29.4,17.06-46.46,0-19.91-3.79-38.87-14.22-55.94ZM81,105.24C84.74,92,96.12,82.48,109.39,78.69a42.44,42.44,0,0,1,21.81,0c16.12,4.74,27.5,17.07,30.34,33.18,1,6.64,0,12.33-.95,19a41.49,41.49,0,0,1-30.34,29.39c-14.22,2.84-28.44,0-38.87-10.43C79.05,138.42,74.31,120.41,81,105.24Z"/><path class="cls-2" d="M119.48,76.37a43.32,43.32,0,1,0,43.32,43.32A43.31,43.31,0,0,0,119.48,76.37Zm0,71a27.71,27.71,0,1,1,27.71-27.71A27.71,27.71,0,0,1,119.48,147.4Z"/></svg>