<svg id="图层_1" data-name="图层 1" xmlns="http://www.w3.org/2000/svg" viewBox="0 0 240 240">
    <defs>
        <style>.cls-1{fill:#1c1c1c;}.cls-2{fill:#4080ff;}</style>
    </defs>
    <path class="cls-2"
        d="M100.61,97.16c-1.19-6-5.44-27.57,7.78-44.58,9.94-12.78,24.51-16.3,30.08-17.34C133.53,34.88,91.3,32.51,63.81,65,48.12,83.47,45.1,104,44.34,112.74L34.26,102.65c.1,11,1.93,41.84,25,64.94,12,12,37.88,30.15,53.43,20.87,14-8.32,11.9-34.14,11.32-41.4C122.09,123.55,105.47,121.8,100.61,97.16ZM90,161.93c-5.1.93-9.13-2.68-10.91-7.54-3.58-9.78,1.62-25.66,2.61-20.58,1.91,9.86,12.43,7.4,15.84,17.21C99.2,155.91,95.05,161,90,161.93Z" />
    <path class="cls-1"
        d="M103.53,206.76c4.94.36,47.17,2.73,74.66-29.72,15.69-18.51,18.71-39.07,19.47-47.77l10.08,10.08c-.1-11-1.93-41.84-24.94-64.94-12-12-37.89-30.15-53.44-20.87-14,8.32-11.9,34.14-11.32,41.4,1.87,23.51,18.49,25.26,23.35,49.9,1.19,6,5.44,27.57-7.78,44.58C123.67,202.2,109.1,205.72,103.53,206.76ZM152,80.07c5.1-.93,9.13,2.68,10.91,7.54,3.58,9.78-1.62,25.66-2.61,20.58-1.91-9.86-12.43-7.4-15.84-17.21C142.8,86.09,147,81,152,80.07Z" />
</svg>