<svg id="图层_1" data-name="图层 1" xmlns="http://www.w3.org/2000/svg" viewBox="0 0 240 240">
    <defs>
        <style>.cls-1{fill:#1c1c1c;}.cls-2{fill:#4080ff;}</style>
    </defs>
    <circle class="cls-2" cx="119.06" cy="107.74" r="28.54"
        transform="translate(-41.09 96.09) rotate(-37.98)" />
    <path class="cls-1" d="M90.88,220.32l14-24.17A89.45,89.45,0,0,1,49.4,164l-14,24.29L73.13,187Z" />
    <path class="cls-1"
        d="M135,195.86l14.12,24.46L166.87,187l37.75,1.3-14.81-25.66A89.5,89.5,0,0,1,135,195.86Z" />
    <path class="cls-1"
        d="M119.06,187.69a79.95,79.95,0,1,0-79.95-79.95A79.95,79.95,0,0,0,119.06,187.69ZM65.82,107.74A53,53,0,0,1,79.08,72.61,96.85,96.85,0,0,0,63,51.67a97.18,97.18,0,0,0,20.93,16.1,53.18,53.18,0,0,1,70.27,0,97.23,97.23,0,0,0,20.94-16.1A97.23,97.23,0,0,0,159,72.61a53.18,53.18,0,0,1,0,70.27,97.18,97.18,0,0,0,16.1,20.93,96.85,96.85,0,0,0-20.94-16.09,53.18,53.18,0,0,1-70.27,0A96.8,96.8,0,0,0,63,163.81a96.8,96.8,0,0,0,16.09-20.93A53.07,53.07,0,0,1,65.82,107.74Z" />
</svg>