<svg id="图层_1" data-name="图层 1" xmlns="http://www.w3.org/2000/svg" viewBox="0 0 240 240">
    <defs>
        <style>.cls-1{fill:#1c1c1c;}.cls-2{fill:#4080ff;}</style>
    </defs>
    <path class="cls-2"
        d="M87.26,116.52C62.92,94.14,63.83,78.45,63.83,78.45L103,97.05a75.94,75.94,0,0,1,14.84-10.26A62.37,62.37,0,0,0,97.32,67.71L46.42,38.32l-6.93,12a62.79,62.79,0,0,0,23,85.77L78,145A75.41,75.41,0,0,1,87.26,116.52Z" />
    <path class="cls-1"
        d="M211.85,91H153.08a62.76,62.76,0,0,0-62.74,61.24c0,.51,0,1,0,1.55v53.65h26.64V167.61h32.13a62.79,62.79,0,0,0,62.78-62.79Z" />
</svg>