<svg id="图层_1" data-name="图层 1" xmlns="http://www.w3.org/2000/svg" viewBox="0 0 240 240"><defs><style>.cls-1{fill:#1c1c1c;}.cls-2{fill:#4080ff;}</style></defs><path class="cls-1" d="M20,82.47l21.56,60.31s32.23-3.38,32.23-35.45,41.34-18,41.34-18L93.47,52.69,20,82.47"/><path class="cls-1" d="M124.87,89.32l21.66-36.63L220,82.47l-21.56,60.31s-32.23-3.38-32.23-35.45S124.87,89.32,124.87,89.32Z"/><polygon class="cls-1" points="120 105.08 87.22 105.08 67.56 183.58 100.72 183.58 101.07 183.96 100.7 182.47 120 105.08"/><polygon class="cls-1" points="172.44 183.58 152.78 105.08 120 105.08 139.28 183.58 172.44 183.58"/><polygon class="cls-2" points="120 105.08 100.7 182.47 101.07 183.96 120 204.54 139.28 183.58 120 105.08"/></svg>