<svg id="图层_1" data-name="图层 1" xmlns="http://www.w3.org/2000/svg" viewBox="0 0 240 240">
    <defs>
        <style>.cls-1{fill:#1c1c1c;}.cls-2{fill:#4080ff;}</style>
    </defs>
    <path class="cls-1"
        d="M196.11,74.44c-1.73,6.89-6.56,21.56-19.92,29.48a38.57,38.57,0,0,1-7.11,3.27,49.59,49.59,0,0,1,1.68,12.08c3.12-1.33,7,1.14,8.21,1.92,7.76,5,7.95,16,8,17.53a31,31,0,0,1-.94,7.76A69.95,69.95,0,0,1,51.25,120.13C51.25,81.45,82.93,50,121.87,50h0c1.07,0,26.56-.59,33.89,12.77,2.59,4.72,2.07,7,1.85,7.56-1.08,2.84-7.69,5-14.89,5.11A49.75,49.75,0,0,1,161.07,90.6c6.15-2.59,11.46-6.87,14-13.62,1.84-4.82,2.82-12.76-2.93-23.24-12.31-22.41-44-22.65-50.31-22.47h0c-49.27,0-89.35,39.87-89.35,88.87a88.69,88.69,0,0,0,174.41,22.72c4.07-9.59,4-26.7.86-40.79A86.53,86.53,0,0,0,196.11,74.44Z" />
    <path class="cls-1"
        d="M170.59,119.34a52,52,0,0,1-27.75,45.23A49.46,49.46,0,0,0,170.77,120c0-.25,0-.51,0-.76l-.15.06Z" />
    <path class="cls-2"
        d="M169.08,107.19A57.62,57.62,0,0,1,151.49,110c-7.15.2-14.23-.93-30.55-.79-4.68,0-7.82.16-10.36,2.39-4.9,4.31-6.4,13.72-2.39,18.85,6.42,8.22,23.42,1.09,24.7.53,6-2.56,6.62-8.11,13-10.09a18.37,18.37,0,0,1,6.35-1c-.57,16.66-14.31,31.26-31,31.26a31,31,0,0,1-31-31,26.52,26.52,0,0,1,9-20.21c6.73-6,15.12-8.21,20.08-7.67,3,.32,5.2.52,7.54.72,2.52.23,5.13.45,9,.87,6.76.73,16.77.32,25.2-3.24a49.47,49.47,0,0,0-85.24,10,45.5,45.5,0,0,0-4.35,19.58,49.79,49.79,0,0,0,49.73,49.73,46.92,46.92,0,0,0,21.63-5.29,52,52,0,0,0,27.75-45.23h0l.15-.06A49.59,49.59,0,0,0,169.08,107.19Z" />
</svg>