<svg id="图层_1" data-name="图层 1" xmlns="http://www.w3.org/2000/svg" viewBox="0 0 240 240">
    <defs>
        <style>.cls-1{fill:#1c1c1c;}.cls-2{fill:#4080ff;}</style>
    </defs>
    <path class="cls-2" d="M17.09,95.87c0,16.35,11.86,29.79,27.06,31.37v.16H88.26V95.87H17.09Z" />
    <path class="cls-2" d="M174.8,95.87H151.74V127.4H175.8l20-.16c15.2-1.58,27.06-15,27.06-31.37Z" />
    <path class="cls-1"
        d="M44.15,127.4v71.47h151.7V127.24l-20,.16v39.81H134V122.06c0-8.08-6.25-14.63-13.95-14.63s-14,6.55-14,14.63v45.15H64.2V127.4Z" />
    <path class="cls-1"
        d="M174.8,95.87h0c0-28-21.62-50.62-48.28-50.62h-13c-26.66,0-48.28,22.66-48.28,50.62H88.26c0-.39,0-.77,0-1.15.58-15.29,12.58-27.49,27.29-27.49h8.86c14.71,0,26.71,12.2,27.29,27.49,0,.38,0,.76,0,1.15H174.8Z" />
</svg>