<svg id="图层_1" data-name="图层 1" xmlns="http://www.w3.org/2000/svg" viewBox="0 0 240 240">
    <defs>
        <style>.cls-1{fill:#1c1c1c;}.cls-2{fill:#4080ff;}</style>
    </defs>
    <circle class="cls-2" cx="120" cy="129.46" r="21.78" />
    <path class="cls-1"
        d="M65.82,174.88a71.63,71.63,0,0,0,50.65,21h1.26c-8.51-41.25-40.62-66.49-87.18-66.49,53.24,0,87.61-33,89.37-85.23A47.31,47.31,0,0,0,72.7,91.44V100a27.76,27.76,0,0,0-39.27,0h0a30,30,0,0,0,0,42.48Z" />
    <path class="cls-1"
        d="M209.45,129.37c-46.56,0-78.67,25.24-87.18,66.49h1.26a71.63,71.63,0,0,0,50.65-21l32.39-32.39a30,30,0,0,0,0-42.48h0a27.76,27.76,0,0,0-39.27,0V91.44a47.31,47.31,0,0,0-47.22-47.3C121.84,96.36,156.21,129.37,209.45,129.37Z" />
</svg>