<svg id="图层_1" data-name="图层 1" xmlns="http://www.w3.org/2000/svg" viewBox="0 0 240 240"><defs><style>.cls-1{fill:#1c1c1c;}.cls-2{fill:#4080ff;}</style></defs><path class="cls-1" d="M148.6,37.28h-102V202.72h115c0-23.57-15-38.58-38.58-38.58,23.57,0,38.58-15,38.58-38.57h0V37.28ZM138.39,175.85a11.55,11.55,0,1,1-11.55,11.54A11.55,11.55,0,0,1,138.39,175.85Zm-36.81-31.68H64v-89h37.55Zm36.81,8.27a11.55,11.55,0,1,1,11.55-11.55A11.55,11.55,0,0,1,138.39,152.44Z"/><path class="cls-2" d="M161.64,125.56h0v77.15h0c0-23.57,15-38.58,38.58-38.58C176.64,164.14,161.64,149.14,161.64,125.56Z"/><path class="cls-2" d="M184.85,152.48a11.55,11.55,0,1,0-11.55-11.55A11.55,11.55,0,0,0,184.85,152.48Z"/><path class="cls-2" d="M184.85,175.85a11.55,11.55,0,1,0,11.55,11.54A11.55,11.55,0,0,0,184.85,175.85Z"/></svg>