<svg id="图层_1" data-name="图层 1" xmlns="http://www.w3.org/2000/svg" viewBox="0 0 240 240">
    <defs>
        <style>.cls-1{fill:#1c1c1c;}.cls-2{fill:#4080ff;}</style>
    </defs>
    <path class="cls-2"
        d="M84.73,94.69v-.51c0-17,15.61-30.85,34.8-30.85s34.8,13.84,34.8,30.85v.51l1.22,11.69c9-.27,17.53-.63,25-1.11l-1.21-11.63c-.33-29-27-52.47-59.8-52.47S60.06,64.66,59.73,93.64l-1.2,11.57c7.43.49,15.91.87,25,1.14Z" />
    <path class="cls-1"
        d="M180.54,114.13c-7.46.48-15.95.85-25,1.11-22.85.67-49.29.66-72,0-9.07-.27-17.55-.65-25-1.14-17.3-1.13-28.89-2.85-28.89-5.16l20.64,65.66c1.18,13.69,14,24.26,29.53,24.26h80.38c15.48,0,28.35-10.57,29.53-24.26l20.64-65.66C210.36,111.26,198.35,113,180.54,114.13Z" />
</svg>