<svg id="图层_1" data-name="图层 1" xmlns="http://www.w3.org/2000/svg" viewBox="0 0 240 240"><defs><style>.cls-1{fill:#1c1c1c;}.cls-2{fill:#4080ff;}</style></defs><rect class="cls-1" x="117.77" y="46.1" width="20" height="136.28"/><path class="cls-2" d="M205.9,114.23a77.51,77.51,0,0,0-5.42-28.53,25.52,25.52,0,0,0-31.54-37.83A78.05,78.05,0,0,0,53.7,89.4a25.54,25.54,0,1,0,20,3.53,58.11,58.11,0,0,1,81.63-29.88,25.51,25.51,0,0,0,27.76,33.32,58.09,58.09,0,0,1-34.07,72,25.52,25.52,0,1,0,3.51,20A78.26,78.26,0,0,0,205.9,114.23Z"/></svg>