<svg id="图层_1" data-name="图层 1" xmlns="http://www.w3.org/2000/svg" viewBox="0 0 240 240">
    <defs>
        <style>.cls-1{fill:#1c1c1c;}.cls-2{fill:#4080ff;}</style>
    </defs>
    <path class="cls-2"
        d="M188.23,94.56A75.94,75.94,0,0,0,192.1,43l-32.39,18.7A76.16,76.16,0,0,1,188.23,94.56Z" />
    <path class="cls-2"
        d="M78.29,61.65,45.9,43a75.94,75.94,0,0,0,3.87,51.61A76.16,76.16,0,0,1,78.29,61.65Z" />
    <path class="cls-2"
        d="M134.32,125.71a15.35,15.35,0,1,0-7.62,13.23A15.32,15.32,0,0,0,134.32,125.71Z" />
    <path class="cls-1"
        d="M188.23,94.56a75.91,75.91,0,1,0-78.42,106.49V154.22a30,30,0,1,1,18.38,0v46.83a75.91,75.91,0,0,0,60-106.49Z" />
</svg>