<svg id="图层_1" data-name="图层 1" xmlns="http://www.w3.org/2000/svg" viewBox="0 0 240 240">
    <defs>
        <style>.cls-1{fill:#1c1c1c;}.cls-2{fill:#4080ff;}</style>
    </defs>
    <rect class="cls-2" x="116.83" y="43.29" width="15.32" height="34.72" />
    <path class="cls-1"
        d="M176.36,62.52c-14.79,3.76-22.2,5.61-28.6,6.38-30.82,3.73-74-8.38-95-25.53C51,41.91,47.33,38.75,42.57,39c-9.66.58-16.7,15-21.19,27.32a165.39,165.39,0,0,1,36.26,14C66.36,85,71.36,88.76,74.29,91.31L86,169.59v38.7h18.11v-38.7h40.05v38.7h18.1v-38.7l9.87-66.1c4.47-6.14,10.84-14.38,19.07-23.61,13.65-15.3,22.47-22.18,20.93-25S199.72,56.58,176.36,62.52Zm-44.21,80.17H116.83V108h15.32Z" />
</svg>