<svg id="图层_1" data-name="图层 1" xmlns="http://www.w3.org/2000/svg" viewBox="0 0 240 240"><defs><style>.cls-1{fill:#1c1c1c;}.cls-2{fill:#4080ff;}</style></defs><path class="cls-1" d="M84.72,151A29.24,29.24,0,0,0,42.07,191l.21.24A29.24,29.24,0,1,0,84.72,151Z"/><path class="cls-1" d="M175.76,142.66a29.25,29.25,0,1,0,22,48.55l.21-.24a29.24,29.24,0,0,0-22.17-48.31Z"/><path class="cls-2" d="M125.56,104a28.89,28.89,0,0,1-11.12,0c-4.18,14.29-11.5,26.63-24.32,41.1l.26.24a29.1,29.1,0,0,1,4.55,5.75c.44.73.84,1.48,1.22,2.25,16.72-7.47,31.05-7.46,47.78,0a29.36,29.36,0,0,1,6-8.21C137.08,130.7,129.74,118.34,125.56,104Z"/><path class="cls-1" d="M120,38.85H120a29.24,29.24,0,1,0,.08,0Z"/></svg>