<svg id="图层_1" data-name="图层 1" xmlns="http://www.w3.org/2000/svg" viewBox="0 0 240 240"><defs><style>.cls-1{fill:#1c1c1c;}.cls-2{fill:#4080ff;}</style></defs><circle class="cls-1" cx="119.51" cy="54.61" r="25"/><path class="cls-1" d="M192.53,182.31a96.61,96.61,0,0,1-51-14.5,124.81,124.81,0,0,0,31.27-82.73H144.7A96.84,96.84,0,0,1,120,149.76,96.84,96.84,0,0,1,95.3,85.08H67.23A124.81,124.81,0,0,0,98.5,167.81a96.61,96.61,0,0,1-51,14.5v28.08A124.6,124.6,0,0,0,120,187.21a124.6,124.6,0,0,0,72.53,23.18Z"/><rect class="cls-2" x="35" y="85.08" width="170" height="29.6"/></svg>