<svg id="图层_1" data-name="图层 1" xmlns="http://www.w3.org/2000/svg" viewBox="0 0 240 240"><defs><style>.cls-1{fill:#1c1c1c;}.cls-2{fill:#4080ff;}</style></defs><circle class="cls-1" cx="150.55" cy="163.45" r="9.95"/><path class="cls-2" d="M161.65,187.51c-1.55-.09-3.07-.24-4.57-.43v14.06h-5.33a5.1,5.1,0,0,1-5.1-5.1V184.7C134.9,180.61,127,172.07,127,157.46a39.72,39.72,0,0,1,39.72-39.71V37.28h-115V202.72h115v-1.58h-5.08Zm-55-43.34H69.12v-89h37.55Z"/><path class="cls-1" d="M166.73,117.75h0v83.39h5.36V187.5c1.45-.1,2.89-.24,4.29-.42v14.06h5.33a5.1,5.1,0,0,0,5.1-5.1V184.7c11.75-4.09,19.64-12.63,19.64-27.24A39.72,39.72,0,0,0,166.73,117.75Z"/></svg>